PathFileType	4	(X/Y/Z)	C:/Users/beibeiliu/ov580/test_trc/User2\sequence.14_training_dense_left.trc
DataRate	CameraRate	NumFrames	NumMarkers	Units	OrigDataRate	OrigDataStartFrame	OrigNumFrames
120	120	23	19	mm	120	1	87
Frame#	Time	ThumbCMC			ThumbMCP			ThumbIP			ThumbTip			IndexMCP			IndexPIP			IndexTip			MiddleMCP			MiddlePIP			MiddleTip			RingMCP			RingPIP			RingTip			PinkyMCP			PinkyPIP			PinkyTip			BackHand1			BackHand2			BackHand3	
		X0	Y0	Z0	X1	Y1	Z1	X2	Y2	Z2	X3	Y3	Z3	X4	Y4	Z4	X5	Y5	Z5	X6	Y6	Z6	X7	Y7	Z7	X8	Y8	Z8	X9	Y9	Z9	X10	Y10	Z10	X11	Y11	Z11	X12	Y12	Z12	X13	Y13	Z13	X14	Y14	Z14	X15	Y15	Z15	X16	Y16	Z16	X17	Y17	Z17	X18	Y18	Z18	
0	0	-79.4317	-43.439	-42.4872	-58.6286	-51.6447	-61.9357	-32.5556	-55.839	-85.2464	-15.7048	-62.4484	-105.713	-95.4244	-19.4868	-122.181	-86.4841	-15.8008	-148.257	-80.1143	-11.4123	-180.678	-121.615	-14.5272	-129.887	-122.567	-7.90064	-161.137	-124.928	-3.60482	-192.748	-146.795	-21.9156	-126.918	-151.85	-18.132	-149.754	-155.938	-15.9966	-179.078	-172.501	-37.847	-109.917	-180.471	-35.8177	-130.003	-187.271	-25.3068	-152.637	-146.233	-23.2587	-72.8539	-147.33	-21.8926	-34.98	-112.332	-18.3888	-55.5162	
1	0.00833333	-82.4126	-44.4154	-44.9261	-58.9973	-50.9672	-62.8951	-39.0036	-56.9975	-87.2128	-18.116	-63.8054	-105.719	-97.1956	-19.4455	-123.865	-89.26	-14.4829	-152.551	-83.8375	-11.8737	-182.088	-122.087	-14.7026	-132.813	-122.836	-9.55834	-159.005	-126.185	-4.09108	-192.819	-152.463	-22.9777	-124.971	-152.25	-19.2628	-150.646	-157.263	-14.748	-184.033	-170.514	-39.8788	-107.185	-183.975	-34.2029	-134.373	-191.044	-25.4836	-150.104	-149.969	-25.6545	-69.6477	-148.021	-21.3097	-38.0159	-113.013	-19.7766	-57.5353	
2	0.0166667	-83.4286	-45.2632	-42.9347	-62.0236	-51.9385	-60.6493	-35.6642	-56.7645	-89.2749	-21.9717	-64.321	-102.327	-92.341	-19.023	-126.359	-90.4669	-15.5531	-150.317	-81.3664	-12.0775	-177.067	-125.304	-15.1645	-129.392	-123.826	-9.59366	-160.051	-123.881	-4.11072	-190.645	-147.931	-23.2913	-123.214	-153.917	-18.9515	-154.827	-159.01	-15.7003	-182.726	-172.924	-38.5964	-107.757	-184.088	-35.7567	-132.304	-190.523	-27.5184	-151.682	-151.279	-24.8312	-69.9006	-147.986	-22.8896	-38.1524	-115.291	-20.3283	-54.499	
3	0.025	-79.8351	-43.54	-47.2806	-62.1584	-51.2071	-64.1087	-37.7188	-56.3438	-87.9843	-21.1746	-63.6394	-100.958	-95.0875	-18.5729	-126.188	-85.7261	-13.4584	-152.681	-86.7233	-11.9682	-176.962	-123.034	-14.5821	-127.711	-124.218	-7.71869	-161.959	-126.783	-3.52223	-191.832	-147.788	-21.5819	-125.677	-154.6	-18.2904	-153.408	-156.059	-15.8309	-178.366	-168.118	-38.5887	-107.555	-179.485	-33.45	-132.901	-190.227	-25.2183	-151.229	-149.313	-24.8826	-72.7038	-151.601	-22.2065	-39.068	-113.603	-19.0712	-57.2496	
4	0.0333333	-84.4394	-43.6538	-44.1728	-60.4962	-48.7557	-65.7183	-35.1581	-53.5864	-86.1454	-18.2864	-59.8518	-103.187	-93.1569	-15.6154	-121.691	-88.2787	-10.7305	-147.889	-82.476	-8.90725	-176.293	-121.211	-8.52482	-131.665	-122.095	-4.664	-164.233	-124.97	-3.04293	-191.528	-152.322	-20.1768	-124.01	-153.13	-14.7281	-154.995	-157.182	-16.3999	-184.094	-173.77	-36.2108	-108.649	-177.694	-32.0416	-133.144	-189.294	-25.3516	-155.219	-150.372	-22.1353	-71.4192	-146.149	-20.4873	-39.8634	-114.574	-18.7699	-56.898	
5	0.0416667	-84.4407	-39.919	-48.0565	-62.3166	-44.7911	-65.2086	-37.9435	-47.6085	-91.0439	-19.9553	-53.8619	-107.437	-94.3598	-10.0114	-118.768	-92.6489	-3.65808	-151.795	-85.5443	-5.86609	-177.231	-127.014	-4.23114	-129.082	-124.729	0.953475	-161.399	-128.668	-6.6845	-194.224	-153.2	-15.4641	-122.877	-155.306	-11.6542	-155.316	-154.973	-18.8882	-182.461	-171.388	-31.9723	-108.12	-177.061	-28.743	-133.418	-184.935	-30.7315	-161.112	-148.458	-21.2383	-67.522	-150.205	-21.3943	-37.4906	-112.997	-16.4175	-54.5859	
6	0.05	-83.312	-35.6851	-46.1275	-61.1589	-39.5633	-65.61	-42.3345	-43.7771	-89.0842	-27.7927	-46.3881	-111.082	-100.14	0.30912	-119.961	-92.5177	5.9214	-144.599	-91.0587	-1.05835	-175.676	-129.174	2.58013	-126.815	-125.331	6.00656	-158.125	-124.23	-12.3204	-193.236	-147.94	-9.76688	-119.007	-151.276	-7.11159	-152.239	-142.861	-24.519	-183.279	-172.278	-28.4686	-108.776	-174.746	-26.2995	-142.179	-171.721	-36.5922	-166.738	-148.663	-20.8091	-66.1441	-153.77	-21.3408	-34.5423	-118.481	-12.2637	-50.5188	
7	0.0583333	-85.5321	-32.2352	-38.7096	-63.9167	-33.5036	-61.5049	-41.9299	-29.8058	-91.7226	-30.9923	-32.3422	-114.079	-102.219	11.1483	-111.925	-95.6354	17.0609	-144.185	-95.1439	3.6044	-170.217	-128.062	10.4566	-122.764	-125.196	10.1701	-156.271	-114.059	-19.7212	-183.505	-146.551	-1.86799	-117.861	-148.153	-4.01775	-151.791	-135.142	-28.3626	-171.305	-168.544	-21.0013	-111.927	-163.824	-22.4517	-141.35	-149.836	-43.8831	-164.02	-155.587	-18.004	-64.099	-156	-20.7002	-34.3526	-118.276	-7.02347	-46.4933	
8	0.0666667	-87.0576	-28.1943	-39.1027	-66.4544	-25.2208	-62.3772	-49.9538	-20.4694	-90.1409	-42.554	-17.5312	-118.682	-104.718	18.4648	-104.856	-100.63	24.0602	-140.824	-90.7527	0.889984	-164.414	-127.699	16.6497	-116.065	-124.265	11.2799	-155.904	-110.984	-21.7181	-168.437	-146.765	4.86433	-118.436	-141.97	-0.99329	-149.906	-122.756	-32.8198	-156.919	-165.32	-17.6349	-109.314	-154.352	-18.1929	-140.898	-137.25	-44.3445	-154.619	-153.832	-13.9719	-63.4561	-158.319	-22.481	-30.3587	-121.671	-6.99502	-42.3887	
9	0.075	-90.2848	-26.2437	-37.0755	-63.946	-18.3043	-60.3087	-48.2092	-10.825	-87.7591	-50.593	-9.7405	-116.404	-105.159	25.3531	-104.205	-104.641	27.953	-135.528	-93.9281	-0.956823	-155.857	-126.046	24.0649	-116.448	-118.196	16.4167	-151.578	-106.648	-20.6497	-155.265	-142.04	11.3619	-119.318	-138.775	1.15316	-149.086	-120.948	-32.243	-144.613	-158.557	-11.8363	-109.029	-146.747	-17.1047	-142.942	-129.863	-43.0346	-144.263	-157.437	-10.843	-62.5947	-159.182	-19.2261	-33.7621	-122.382	-4.18272	-39.2809	
10	0.0833333	-88.8493	-20.8743	-38.3783	-66.8931	-13.4574	-60.3634	-52.8217	-3.59006	-91.2041	-55.9389	0.645436	-120.831	-108.324	28.1288	-106.577	-101.457	27.3588	-137.028	-91.3987	-7.7175	-147.179	-127.11	27.2593	-119.042	-117.234	16.0991	-149.635	-107.562	-22.6754	-144.873	-146.895	10.4677	-121.396	-134.751	0.139772	-148.82	-117.972	-32.6655	-134.789	-157.031	-8.70267	-111.799	-142.128	-16.0536	-143.222	-127.402	-43.3091	-137.237	-157.759	-8.89776	-63.0041	-158.623	-19.2482	-36.1111	-125.627	-1.48052	-40.1269	
11	0.0916667	-91.983	-23.1424	-38.7918	-64.9209	-11.1093	-60.0938	-52.7611	0.186781	-91.2781	-61.8857	1.95496	-119.439	-107.354	30.026	-108.547	-99.9436	23.0019	-139.506	-90.8548	-8.54421	-141.59	-127.282	26.4884	-117.872	-117.126	11.4057	-150.887	-104.259	-25.4572	-134.874	-145.541	10.8085	-120.975	-130.838	0.432363	-147.48	-119.969	-31.581	-132.779	-154.189	-4.68988	-117.385	-140.525	-15.3638	-141.683	-127.721	-46.9317	-132.82	-158.501	-5.69603	-64.7469	-161.714	-20.1379	-35.4934	-122.812	-0.730983	-42.271	
12	0.1	-92.7802	-19.1325	-41.9009	-70.8896	-11.5641	-62.9376	-54.1189	1.11451	-93.1672	-62.4742	5.73522	-122.384	-106.086	30.8631	-110.411	-96.8262	22.0313	-139.373	-88.5549	-10.1046	-137.717	-124.275	27.34	-120.186	-114.317	7.8221	-149.83	-105.852	-25.3968	-133.113	-146.075	11.579	-123.684	-127.063	-2.88582	-147.204	-119.385	-31.6719	-127.564	-158.295	-7.3637	-116.573	-141.001	-17.3243	-142.418	-125.957	-47.162	-128.37	-153.742	-4.70896	-66.0413	-159.044	-20.9223	-33.6647	-125.013	-2.33245	-40.9463	
13	0.108333	-89.8762	-21.423	-39.1456	-66.498	-8.6187	-63.6632	-55.4519	3.29982	-95.3497	-65.1457	5.23836	-124.354	-108.26	28.1826	-108.068	-98.3442	22.5347	-138.869	-86.084	-14.4831	-134.331	-124.344	27.2279	-122.691	-110.62	7.05259	-149.025	-102.192	-24.8914	-130.851	-141.536	12.0097	-125.742	-128.671	-2.94322	-147.399	-117.254	-31.0216	-126.519	-152.402	-5.10535	-119.74	-135.753	-23.7251	-142.48	-123.998	-46.9463	-125.078	-153.882	-4.9465	-66.6525	-158.81	-17.9733	-35.277	-125.463	-0.842564	-38.1179	
14	0.116667	-88.3947	-19.0446	-38.5567	-66.465	-11.61	-61.7285	-53.442	-0.851187	-94.5228	-63.5654	0.93184	-123.192	-107.786	27.6984	-111.632	-97.9437	18.9123	-139.696	-84.0431	-14.6699	-135.479	-122.613	23.948	-120.455	-108.109	5.7191	-148.63	-100.162	-28.8943	-124.218	-139.584	8.21305	-126.408	-124.533	-9.49385	-147.656	-113.955	-32.672	-124.593	-153.612	-10.4786	-123.681	-134.76	-26.2324	-143.235	-121.737	-53.5854	-121.122	-157.988	-8.16196	-65.8032	-157.139	-20.7359	-37.6377	-126.705	-0.543165	-41.5784	
15	0.125	-89.5887	-14.4717	-38.7069	-68.7461	-7.70104	-64.7854	-54.0738	2.52959	-98.0142	-57.2424	-1.06879	-123.84	-107.795	26.4881	-112.238	-93.1855	17.9084	-140.938	-78.5765	-18.0607	-136.643	-125.675	17.3885	-123.855	-101.589	-2.29669	-148.408	-92.9768	-30.1621	-123.536	-138.337	-1.07151	-128.831	-117.63	-16.9725	-146.3	-109.056	-38.8193	-118.556	-149.588	-20.7933	-125.703	-124.301	-35.4961	-139.603	-113.141	-54.4193	-113.391	-155.428	-11.2993	-71.0198	-158.923	-23.4571	-38.9337	-129.049	3.6899	-44.2821	
16	0.133333	-94.1437	-2.40404	-37.1833	-70.8271	4.11111	-67.0791	-55.8039	7.87804	-95.1188	-56.639	3.40648	-125.714	-114.357	22.3265	-116.207	-94.8365	10.3999	-143.937	-71.8642	-13.1216	-138.689	-126.918	5.7964	-128.332	-99.0068	-11.6914	-148.132	-85.2364	-31.6978	-116.964	-129.74	-13.03	-132.335	-105.664	-31.5253	-142.368	-99.2674	-41.8842	-105.588	-138.361	-34.8677	-127.043	-111.015	-46.5211	-133.808	-103.571	-55.0613	-103.55	-157.205	-20.8479	-71.2348	-160.413	-25.7238	-42.8242	-138.157	3.76111	-49.8917	
17	0.141667	-101.496	10.1536	-41.3147	-77.8999	11.8884	-64.5985	-60.0817	15.5641	-95.045	-55.357	8.63095	-124.665	-120.264	22.3678	-120.812	-97.7109	9.03316	-146.207	-71.0398	-7.78551	-139.958	-127.24	0.642305	-135.519	-96.6214	-11.773	-146.37	-81.5912	-27.8393	-109.042	-129.446	-23.1967	-134.661	-101.155	-34.4579	-139.961	-93.1503	-34.0447	-101.929	-134.157	-41.4801	-123.155	-101.059	-50.6858	-126.425	-97.4025	-51.4762	-97.3134	-158.362	-23.2618	-75.4113	-163.063	-30.6584	-45.0798	-146.869	2.31566	-52.5752	
18	0.15	-107.923	13.8409	-45.0944	-85.4704	14.0799	-67.4004	-65.8018	18.8729	-102.106	-64.6756	7.682	-125.667	-127.728	21.1142	-122.429	-104.713	13.072	-147.847	-77.1931	-7.48058	-142.693	-136.264	1.96319	-134.218	-101.903	-14.6363	-147.557	-86.1522	-26.4006	-117.052	-136.503	-23.2075	-133.698	-104.824	-35.2849	-139.314	-96.3523	-35.0064	-101.004	-138.462	-43.4458	-123.832	-104.535	-46.9657	-126.071	-98.7939	-46.7662	-97.3815	-162.957	-23.6769	-74.1077	-168.697	-31.0038	-42.2754	-151.679	1.18548	-53.0806	
19	0.158333	-109.346	8.10936	-46.0043	-83.2242	11.7436	-70.2699	-67.381	11.7807	-101.393	-63.5152	2.80369	-129.073	-129.083	18.3841	-128.346	-108.658	10.9334	-148.11	-80.4049	-11.4027	-144.184	-138.735	1.35832	-138.208	-106.883	-11.0228	-150.168	-89.807	-29.169	-120.579	-140.268	-25.435	-137.991	-112.975	-34.2545	-142.978	-98.4616	-38.2943	-106.352	-146.257	-45.3791	-124.279	-112.947	-52.7121	-130.83	-102.335	-53.6248	-99.5471	-169.016	-21.4541	-77.0483	-168.791	-29.5087	-40.8322	-151.448	6.8258	-51.4186	
20	0.166667	-110.01	6.94808	-44.7726	-81.4553	9.52072	-72.4473	-63.0426	6.45677	-102.783	-59.479	-8.00575	-128.259	-125.103	11.0548	-126.736	-100.214	-2.9972	-149.361	-72.4028	-22.1715	-141.275	-135.609	-9.89308	-136.963	-102.687	-20.4791	-151.104	-82.1488	-35.9953	-119.047	-137.523	-33.2699	-134.649	-105.312	-45.7825	-140.33	-92.3186	-43.844	-108.253	-141.139	-52.8504	-122.146	-109.006	-60.6129	-126.782	-96.5008	-55.4453	-97.6503	-164.65	-26.5302	-77.3365	-168.698	-28.4085	-45.6659	-153.01	3.09669	-59.1262	
21	0.175	-112.326	12.1851	-50.3714	-83.0143	10.9601	-66.5026	-59.345	5.0667	-96.5017	-51.8475	-12.5605	-114.607	-116.332	-1.60661	-130.978	-90.046	-11.2451	-146.796	-61.9288	-25.5978	-136.399	-122.448	-20.8535	-139.982	-88.9336	-36.3061	-145.167	-68.4593	-40.8142	-114.475	-126.348	-45.5372	-130.629	-92.6623	-53.6268	-134.255	-79.9025	-49.9101	-101.911	-126.14	-63.2856	-117.887	-93.3237	-66.0158	-116.278	-85.8958	-59.0264	-88.9087	-159.482	-34.3717	-79.5042	-167.961	-33.5023	-44.3866	-152.649	-0.998581	-62.3529	
22	0.183333	-120.071	15.4234	-51.3003	-88.0825	16.145	-71.1698	-60.0152	9.48854	-93.2864	-46.2196	-11.4831	-109.712	-110.236	-9.67023	-128.967	-79.1835	-19.8634	-140.181	-51.3924	-25.1355	-124.462	-108.886	-34.2374	-133.298	-75.3546	-45.1057	-134.465	-54.1607	-38.2284	-97.0319	-109.347	-53.5463	-121.878	-75.9524	-60.321	-121.639	-66.9252	-43.3706	-90.4859	-108.676	-74.4229	-105.536	-75.6742	-68.5929	-100.034	-72.7753	-54.6224	-73.5713	-152.636	-47.5153	-78.2679	-168.352	-40.1399	-46.0735	-155.599	-7.04695	-68.386	
